<?xml version="1.0" encoding="UTF-8" standalone="no"?>
<!-- Created with Inkscape (http://www.inkscape.org/) -->

<svg
   xmlns:dc="http://purl.org/dc/elements/1.1/"
   xmlns:cc="http://creativecommons.org/ns#"
   xmlns:rdf="http://www.w3.org/1999/02/22-rdf-syntax-ns#"
   xmlns:svg="http://www.w3.org/2000/svg"
   xmlns="http://www.w3.org/2000/svg"
   xmlns:sodipodi="http://sodipodi.sourceforge.net/DTD/sodipodi-0.dtd"
   xmlns:inkscape="http://www.inkscape.org/namespaces/inkscape"
   width="57.452824mm"
   height="57.452381mm"
   viewBox="0 0 57.452824 57.452381"
   version="1.1"
   id="svg8"
   inkscape:version="0.92.4 (5da689c313, 2019-01-14)"
   sodipodi:docname="icon.svg">
  <defs
     id="defs2">
    <marker
       inkscape:stockid="Arrow1Lend"
       orient="auto"
       refY="0"
       refX="0"
       id="Arrow1Lend"
       style="overflow:visible"
       inkscape:isstock="true">
      <path
         id="path971"
         d="M 0,0 5,-5 -12.5,0 5,5 Z"
         style="fill-rule:evenodd;stroke:#000000;stroke-width:1.00000003pt"
         transform="matrix(-0.8,0,0,-0.8,-10,0)"
         inkscape:connector-curvature="0" />
    </marker>
  </defs>
  <sodipodi:namedview
     id="base"
     pagecolor="#ffffff"
     bordercolor="#666666"
     borderopacity="1.0"
     inkscape:pageopacity="0.0"
     inkscape:pageshadow="2"
     inkscape:zoom="1.979899"
     inkscape:cx="15.149871"
     inkscape:cy="161.48126"
     inkscape:document-units="mm"
     inkscape:current-layer="g916"
     showgrid="false"
     showguides="false"
     inkscape:window-width="1920"
     inkscape:window-height="1017"
     inkscape:window-x="-8"
     inkscape:window-y="-8"
     inkscape:window-maximized="1">
    <inkscape:grid
       type="xygrid"
       id="grid815"
       originx="-133.74981"
       originy="-143.27595" />
  </sodipodi:namedview>
  <metadata
     id="metadata5">
    <rdf:RDF>
      <cc:Work
         rdf:about="">
        <dc:format>image/svg+xml</dc:format>
        <dc:type
           rdf:resource="http://purl.org/dc/dcmitype/StillImage" />
        <dc:title />
      </cc:Work>
    </rdf:RDF>
  </metadata>
  <g
     inkscape:label="Layer 1"
     inkscape:groupmode="layer"
     id="layer1"
     transform="translate(-133.74981,-96.271672)">
    <g
       id="g861"
       style="fill:#ff0000">
      <g
         id="g899"
         transform="translate(-37.041668)"
         style="fill:#ff0000" />
    </g>
    <g
       id="g903"
       transform="translate(71.761868,-0.40090432)"
       inkscape:export-xdpi="28.294733"
       inkscape:export-ydpi="28.294733">
      <g
         id="g916"
         style="stroke:none">
        <g
           id="g2791"
           inkscape:export-xdpi="56.702976"
           inkscape:export-ydpi="56.702976">
          <path
             inkscape:connector-curvature="0"
             style="opacity:1;fill:#ff4725;fill-opacity:1;stroke:none;stroke-width:0.99999994px;stroke-linecap:butt;stroke-linejoin:miter;stroke-opacity:1"
             d="m 347.85742,368.11211 -3.78007,59.02462 c -0.70902,10.51703 7.43787,-5.12228 27.43788,-5.12228 7.70443,0 17.39383,2.85705 24.04727,9.23555 5.55953,5.3298 8.68403,13.11145 8.72266,20.55469 0.042,8.09236 -3.82718,16.42593 -9.25196,22.44531 -8.59771,9.5401 -15.91269,9.69727 -23.60547,9.69727 -20.00001,0 -26.17378,-12.20647 -26.55,-1.67228 l -2.14258,53.93908 c 5.33111,-0.0741 14.69047,-1.48175 21.41913,-2.23867 L 350,582.51953 l 45.57578,-53.8832 c 5.40209,-1.82819 13.47099,-7.00429 17.78827,-9.53046 29.75544,-17.34806 38.06564,-44.64556 38.06564,-67.30118 0,-22.65562 -12.27404,-49.97598 -41.99024,-67.40625 -29.71623,-17.43029 -61.58203,-16.28633 -61.58203,-16.28633 z"
             id="path891"
             transform="scale(0.26458333)"
             sodipodi:nodetypes="cccssssccccccssc" />
          <path
             style="opacity:1;fill:#e1e1e1;fill-opacity:1;stroke:#b3abad;stroke-width:2.51338577;stroke-linecap:square;stroke-linejoin:round;stroke-miterlimit:4;stroke-dasharray:none;stroke-opacity:1;paint-order:stroke fill markers"
             d="m 339.28571,367.90205 c 0,0 -19.58328,1.97888 -29.0626,4.47132 -12.79975,3.3655 -25.8898,7.44814 -37.13718,14.04537 -29.71622,17.43027 -38.80078,43.44462 -38.80078,66.10024 0,22.65562 9.66644,51.7642 39.42187,69.11227 11.55162,6.73485 23.54804,10.43834 33.90291,12.4491 16.31788,3.16869 28.05414,1.62864 28.05414,1.62864 L 340,472.51953 c 0.7216,-10.51618 12.01095,5.1865 30.50508,6.46447 7.88655,0.54497 12.78918,-0.42081 20.00726,-7.94131 4.60981,-4.80295 8.43353,-11.73299 8.47751,-18.52316 0.0456,-7.03571 -3.16762,-14.75566 -8.53471,-19.30513 -6.18885,-5.24604 -14.8945,-6.2493 -23.57226,-6.06252 -11.03943,0.23762 -26.76637,15.90791 -26.88288,5.36765 z"
             transform="scale(0.26458333)"
             id="path817"
             inkscape:connector-curvature="0"
             sodipodi:nodetypes="casssscsssaassc" />
        </g>
      </g>
    </g>
  </g>
</svg>
