<?xml version="1.0" encoding="utf-8"?>
<!-- Generator: Adobe Illustrator 24.1.2, SVG Export Plug-In . SVG Version: 6.00 Build 0)  -->
<svg version="1.1" id="Layer_1" xmlns="http://www.w3.org/2000/svg" xmlns:xlink="http://www.w3.org/1999/xlink" x="0px" y="0px"
	 viewBox="0 0 256 256" style="enable-background:new 0 0 256 256;" xml:space="preserve">
<style type="text/css">
	.st0{fill:#261300;}
	.st1{fill:#FF7C00;}
</style>
<g id="svg8" inkscape:version="0.92.4 (5da689c313, 2019-01-14)" sodipodi:docname="icon.svg" xmlns:cc="http://creativecommons.org/ns#" xmlns:dc="http://purl.org/dc/elements/1.1/" xmlns:inkscape="http://www.inkscape.org/namespaces/inkscape" xmlns:rdf="http://www.w3.org/1999/02/22-rdf-syntax-ns#" xmlns:sodipodi="http://sodipodi.sourceforge.net/DTD/sodipodi-0.dtd" xmlns:svg="http://www.w3.org/2000/svg">
	<path id="path891_1_" inkscape:connector-curvature="0" sodipodi:nodetypes="cccssssccccccssc" class="st0" d="M54,190.6l-0.1,40.1
		c0,5.3,6.9,7.2,9.7,2.8l19.2-31.2c1.1-1.8,3.1-2.7,5.2-2.4c8.3,1.2,24.5,4.1,33.9,5.4c3.2,0.4,6-2.1,5.9-5.4
		c-0.6-15.6-2.3-56.1-2.3-56.1c-0.4-12.1-7.5,1.9-30.6,1.9c-8.9,0-17.3-0.2-27.2-11.2C61.5,127.6,57,118,57,108.7
		c0-8.6,3.6-17.5,10-23.7c7.7-7.3,18.8-10.6,27.7-10.6c23,0,32.4,18,31.6,5.9l-4.3-66c-0.1-1.2-1-2.1-2.2-2.1
		c-8.2,0.1-39.4,1.5-68.8,18.8C17,51.2,2.9,82.7,2.9,108.8s9.6,57.5,43.8,77.5"/>
	<path id="path817" inkscape:connector-curvature="0" sodipodi:nodetypes="casssscsssaassc" class="st1" d="M131.2,86.6
		c-0.1,12.1-18.2-5.9-31-6.2c-10-0.2-20,0.9-27.1,7c-6.2,5.2-9.9,14.1-9.8,22.2c0.1,7.8,4.5,15.8,9.8,21.3c8.3,8.7,14,9.8,23,9.1
		c21.3-1.5,34.3-19.5,35.1-7.4l4.8,70.3c0.1,1.5,1.3,2.6,2.7,2.7c4.8,0.3,15.8,0.6,29.7-2.1c11.9-2.3,25.7-6.6,39-14.3
		c34.3-20,45.4-53.5,45.4-79.6s-10.5-56-44.7-76.1c-12.9-7.6-28-12.3-42.8-16.2c-8.4-2.2-23.6-4-30.3-4.8c-1.7-0.2-3.2,1.2-3.2,2.9
		L131.2,86.6z"/>
</g>
</svg>
